<svg width="20" height="18" viewBox="0 0 20 18" fill="none" xmlns="http://www.w3.org/2000/svg">
<path d="M19.5722 2.10782H4.83254L4.77264 1.9106H4.7725C4.64196 1.48579 4.36799 1.11222 3.99184 0.845776C3.6157 0.579464 3.15774 0.434692 2.68644 0.43335H0.850261C0.613827 0.43335 0.422241 0.613088 0.422241 0.834901C0.422241 1.05658 0.613827 1.23632 0.850261 1.23632H2.68644C2.97173 1.23726 3.24901 1.32477 3.47685 1.48609C3.70454 1.64741 3.87035 1.87353 3.94944 2.13068L6.5425 10.6669C6.71388 11.2241 7.07327 11.7143 7.56677 12.0637C8.06027 12.4131 8.66125 12.6029 9.27943 12.6046H18.7239C18.9603 12.6046 19.1519 12.4249 19.1519 12.2031C19.1519 11.9814 18.9603 11.8017 18.7239 11.8017H9.27943C8.84712 11.8005 8.42699 11.6677 8.08191 11.4234C7.73686 11.179 7.48566 10.8363 7.36585 10.4466L7.19261 9.87648H16.5729C17.4816 9.87554 18.3527 9.53637 18.9952 8.93359C19.6376 8.33078 19.999 7.51356 20 6.66114V2.50935C20 2.28767 19.8084 2.10793 19.5722 2.10793L19.5722 2.10782ZM19.1442 6.66124C19.1435 7.30073 18.8722 7.91387 18.3903 8.36611C17.9083 8.81849 17.2547 9.07282 16.5729 9.07364H6.94872L5.60263 4.64274H14.8527C15.0891 4.64274 15.2807 4.463 15.2807 4.24119C15.2807 4.01951 15.0891 3.83978 14.8527 3.83978H5.35869L5.0764 2.91085H19.1444L19.1442 6.66124Z" fill="#1B1A1A"/>
<path d="M8.54493 13.8482C8.01361 13.8482 7.5039 14.0461 7.12819 14.3985C6.75248 14.751 6.54141 15.2291 6.54126 15.7275C6.54126 16.226 6.75219 16.7041 7.1279 17.0565C7.50361 17.409 8.01317 17.6072 8.54449 17.6072C9.07581 17.6072 9.58538 17.4093 9.96109 17.0568C10.3369 16.7043 10.548 16.2263 10.548 15.7278C10.5474 15.2296 10.3362 14.7518 9.96065 14.3995C9.58523 14.0471 9.07596 13.8488 8.5449 13.8481L8.54493 13.8482ZM8.54493 16.8042C8.24057 16.8042 7.94868 16.6909 7.73346 16.489C7.51824 16.2871 7.39729 16.0132 7.39729 15.7277C7.39715 15.4422 7.51809 15.1683 7.73332 14.9665C7.94855 14.7646 8.24043 14.6512 8.54479 14.6512C8.84915 14.6512 9.14104 14.7646 9.35611 14.9665C9.57134 15.1685 9.69214 15.4423 9.69214 15.7278C9.69185 16.0132 9.57077 16.2868 9.35568 16.4886C9.1406 16.6904 8.84901 16.8038 8.54491 16.8042L8.54493 16.8042Z" fill="#1B1A1A"/>
<path d="M17.1485 13.8482C16.6172 13.8482 16.1077 14.0461 15.732 14.3985C15.3561 14.7509 15.145 15.2289 15.145 15.7274C15.1449 16.226 15.3559 16.7041 15.7317 17.0565C16.1072 17.409 16.6168 17.6072 17.1481 17.6072C17.6794 17.6072 18.1891 17.4093 18.5648 17.0568C18.9406 16.7043 19.1516 16.2263 19.1518 15.7278C19.1512 15.2296 18.9398 14.7518 18.5644 14.3995C18.1888 14.0471 17.6797 13.8488 17.1485 13.8481L17.1485 13.8482ZM17.1485 16.8042C16.8442 16.8042 16.5523 16.6909 16.3371 16.489C16.1218 16.2871 16.0009 16.0132 16.0009 15.7277C16.0009 15.4422 16.1218 15.1683 16.3369 14.9665C16.5522 14.7646 16.844 14.6512 17.1484 14.6512C17.4528 14.6512 17.7447 14.7646 17.9599 14.9665C18.175 15.1685 18.2959 15.4423 18.2957 15.7278C18.2955 16.0132 18.1745 16.2868 17.9594 16.4886C17.7444 16.6904 17.4528 16.8038 17.1486 16.8042L17.1485 16.8042Z" fill="#1B1A1A"/>
<path d="M16.5576 4.5274C16.6382 4.60054 16.7454 4.64207 16.8573 4.64369C16.9147 4.64355 16.9715 4.63267 17.0242 4.61169C17.0754 4.5922 17.1218 4.56357 17.1612 4.52741C17.2016 4.48949 17.2336 4.44446 17.2555 4.39499C17.3247 4.24483 17.287 4.0702 17.1612 3.95713C17.1221 3.91976 17.0755 3.88978 17.0244 3.86894C16.8643 3.80508 16.6789 3.84004 16.5576 3.95713C16.432 4.07032 16.3944 4.24495 16.4636 4.39499C16.4853 4.44446 16.5172 4.48949 16.5576 4.52741L16.5576 4.5274Z" fill="#1B1A1A"/>
</svg>
