<svg width="17" height="15" viewBox="0 0 17 15" fill="none" xmlns="http://www.w3.org/2000/svg">
<path d="M1.35102 0.76939C1.14385 0.76939 0.975464 0.609952 0.975464 0.413748C0.975464 0.217558 1.14383 0.0581055 1.35102 0.0581055H3.77472C3.9416 0.0581055 4.08304 0.160794 4.13167 0.303588L5.25247 3.07302H16.6245C16.8317 3.07302 17 3.23246 17 3.42866C17 3.47147 16.9922 3.51276 16.9774 3.55048L14.9946 9.80383C14.946 9.95776 14.7968 10.0576 14.6352 10.0576V10.0581H7.44168C7.2974 10.0581 7.16624 10.1138 7.07103 10.204C6.97582 10.2941 6.91693 10.4183 6.91693 10.555V10.5647C6.91693 10.7019 6.97583 10.8264 7.07057 10.9161L7.0716 10.9152C7.1668 11.0053 7.29796 11.0611 7.44225 11.0611H13.9634C14.1711 11.0611 14.339 11.2205 14.339 11.4167C14.339 11.6129 14.1706 11.7724 13.9634 11.7724H7.44225C7.0908 11.7724 6.77164 11.6366 6.54038 11.4181L6.5414 11.4172L6.54038 11.4162C6.30968 11.1977 6.16631 10.8959 6.16631 10.5641V10.5544C6.16631 10.2215 6.30967 9.9193 6.54038 9.70083C6.77107 9.48238 7.09022 9.3466 7.44225 9.3466H14.357L16.121 3.78395H5.54145L7.35058 8.25494C7.42421 8.43816 7.32707 8.64365 7.13313 8.71335C6.93965 8.78307 6.72265 8.69108 6.64904 8.50743L4.6519 3.57155C4.64699 3.56085 4.64254 3.55015 4.63866 3.53901L3.51785 0.769309H1.35236L1.35102 0.76939ZM12.9571 12.5727C13.4167 12.5727 13.7897 12.9255 13.7897 13.3607C13.7897 13.7963 13.4171 14.1491 12.9571 14.1491C12.4975 14.1491 12.1249 13.7963 12.1249 13.3607C12.1249 12.9255 12.4975 12.5727 12.9571 12.5727ZM7.90872 12.5727C8.36829 12.5727 8.74087 12.9255 8.74087 13.3607C8.74087 13.7963 8.36829 14.1491 7.90872 14.1491C7.44871 14.1491 7.07613 13.7963 7.07613 13.3607C7.07613 12.9255 7.44871 12.5727 7.90872 12.5727Z" fill="white"/>
</svg>
