<svg width="17" height="14" viewBox="0 0 17 14" fill="none" xmlns="http://www.w3.org/2000/svg">
<path fill-rule="evenodd" clip-rule="evenodd" d="M8.50018 3.15168C8.91509 2.47253 9.35439 1.93538 9.87945 1.53944C10.589 1.00467 11.4296 0.737305 12.5397 0.737305C13.7709 0.737305 14.886 1.20856 15.693 1.96952C16.5008 2.73034 17 3.78244 17 4.94243C17 7.69711 15.1057 9.05717 12.5901 10.8627C11.4195 11.703 10.1084 12.6439 8.79802 13.8794C8.63389 14.0333 8.3672 14.0333 8.20306 13.8794C6.89282 12.6441 5.58157 11.7022 4.41171 10.862C1.89449 9.05687 0 7.69619 0 4.94233C0 3.78237 0.499851 2.73024 1.30699 1.96942C2.11399 1.20859 3.22911 0.737339 4.46032 0.737339C5.57036 0.737339 6.41104 1.00472 7.12055 1.53948C7.64565 1.93623 8.0849 2.47324 8.49982 3.15171L8.50018 3.15168ZM10.403 2.15667C9.82564 2.5914 9.35439 3.2643 8.87549 4.16712C8.8359 4.24097 8.77279 4.30353 8.68783 4.34325C8.48172 4.44087 8.22924 4.36144 8.12569 4.16712C7.64683 3.26338 7.17472 2.5914 6.59905 2.15667C6.04535 1.73935 5.36953 1.53067 4.46068 1.53067C3.46181 1.53067 2.55617 1.91307 1.90231 2.5303C1.24762 3.14767 0.842014 4.00054 0.842014 4.94229C0.842014 7.30593 2.59407 8.56331 4.92118 10.2329C6.02786 11.0278 7.25904 11.9118 8.50039 13.0424C9.74174 11.9118 10.973 11.028 12.0805 10.2337C14.4065 8.56351 16.1586 7.30512 16.1586 4.94239C16.1586 4.00067 15.7538 3.14767 15.0983 2.5304C14.4444 1.91317 13.5388 1.53077 12.5399 1.53077C11.6299 1.53077 10.9549 1.73944 10.4029 2.15677L10.403 2.15667Z" fill="white"/>
</svg>
