<svg width="118" height="26" viewBox="0 0 118 26" fill="none" xmlns="http://www.w3.org/2000/svg">
<rect width="17.7937" height="23" fill="#1C1B1B"/>
<path d="M2.61645 21V5.6H6.15845V15.632L13.5065 5.6H16.8505V21H13.3305V10.99L5.98245 21H2.61645Z" fill="#FFF8F8"/>
<path d="M20.4208 21V9.164H23.8308V13.784H28.9788V9.164H32.4108V21H28.9788V16.578H23.8308V21H20.4208ZM38.2262 21V11.188L38.9962 11.98H34.2222V9.164H45.6402V11.98H40.8662L41.6362 11.188V21H38.2262ZM52.7615 21.176C51.4122 21.176 50.2242 20.912 49.1975 20.384C48.1855 19.856 47.4008 19.1373 46.8435 18.228C46.2862 17.304 46.0075 16.2553 46.0075 15.082C46.0075 13.894 46.2788 12.8453 46.8215 11.936C47.3788 11.012 48.1342 10.2933 49.0875 9.78C50.0408 9.252 51.1188 8.988 52.3215 8.988C53.4802 8.988 54.5215 9.23733 55.4455 9.736C56.3842 10.22 57.1248 10.924 57.6675 11.848C58.2102 12.7573 58.4815 13.85 58.4815 15.126C58.4815 15.258 58.4742 15.412 58.4595 15.588C58.4448 15.7493 58.4302 15.9033 58.4155 16.05H48.8015V14.048H56.6115L55.2915 14.642C55.2915 14.026 55.1668 13.4907 54.9175 13.036C54.6682 12.5813 54.3235 12.2293 53.8835 11.98C53.4435 11.716 52.9302 11.584 52.3435 11.584C51.7568 11.584 51.2362 11.716 50.7815 11.98C50.3415 12.2293 49.9968 12.5887 49.7475 13.058C49.4982 13.5127 49.3735 14.0553 49.3735 14.686V15.214C49.3735 15.8593 49.5128 16.4313 49.7915 16.93C50.0848 17.414 50.4882 17.788 51.0015 18.052C51.5295 18.3013 52.1455 18.426 52.8495 18.426C53.4802 18.426 54.0302 18.3307 54.4995 18.14C54.9835 17.9493 55.4235 17.6633 55.8195 17.282L57.6455 19.262C57.1028 19.878 56.4208 20.3547 55.5995 20.692C54.7782 21.0147 53.8322 21.176 52.7615 21.176ZM68.0862 21.176C67.0889 21.176 66.2162 20.956 65.4682 20.516C64.7202 20.076 64.1336 19.4087 63.7082 18.514C63.2976 17.6047 63.0922 16.4607 63.0922 15.082C63.0922 13.6887 63.2902 12.5447 63.6862 11.65C64.0822 10.7553 64.6542 10.088 65.4022 9.648C66.1502 9.208 67.0449 8.988 68.0862 8.988C69.2009 8.988 70.1982 9.24467 71.0782 9.758C71.9729 10.2567 72.6769 10.9607 73.1902 11.87C73.7182 12.7793 73.9822 13.85 73.9822 15.082C73.9822 16.3287 73.7182 17.4067 73.1902 18.316C72.6769 19.2253 71.9729 19.9293 71.0782 20.428C70.1982 20.9267 69.2009 21.176 68.0862 21.176ZM61.0902 25.268V9.164H64.3682V11.584L64.3022 15.104L64.5222 18.602V25.268H61.0902ZM67.4922 18.36C68.0642 18.36 68.5702 18.228 69.0102 17.964C69.4649 17.7 69.8242 17.326 70.0882 16.842C70.3669 16.3433 70.5062 15.7567 70.5062 15.082C70.5062 14.3927 70.3669 13.806 70.0882 13.322C69.8242 12.838 69.4649 12.464 69.0102 12.2C68.5702 11.936 68.0642 11.804 67.4922 11.804C66.9202 11.804 66.4069 11.936 65.9522 12.2C65.4976 12.464 65.1382 12.838 64.8742 13.322C64.6102 13.806 64.4782 14.3927 64.4782 15.082C64.4782 15.7567 64.6102 16.3433 64.8742 16.842C65.1382 17.326 65.4976 17.7 65.9522 17.964C66.4069 18.228 66.9202 18.36 67.4922 18.36ZM82.7896 12.948C84.3443 12.9627 85.5249 13.3147 86.3316 14.004C87.1529 14.6787 87.5636 15.6393 87.5636 16.886C87.5636 18.1913 87.1016 19.2107 86.1776 19.944C85.2536 20.6627 83.9703 21.022 82.3276 21.022L76.3876 21V9.164H79.7976V12.948H82.7896ZM82.0196 18.58C82.6796 18.5947 83.1856 18.4553 83.5376 18.162C83.8896 17.8687 84.0656 17.4287 84.0656 16.842C84.0656 16.2553 83.8896 15.8373 83.5376 15.588C83.1856 15.324 82.6796 15.1847 82.0196 15.17L79.7976 15.148V18.58H82.0196ZM95.4939 21.176C94.1446 21.176 92.9566 20.912 91.9299 20.384C90.9179 19.856 90.1333 19.1373 89.5759 18.228C89.0186 17.304 88.7399 16.2553 88.7399 15.082C88.7399 13.894 89.0113 12.8453 89.5539 11.936C90.1113 11.012 90.8666 10.2933 91.8199 9.78C92.7733 9.252 93.8513 8.988 95.0539 8.988C96.2126 8.988 97.2539 9.23733 98.1779 9.736C99.1166 10.22 99.8573 10.924 100.4 11.848C100.943 12.7573 101.214 13.85 101.214 15.126C101.214 15.258 101.207 15.412 101.192 15.588C101.177 15.7493 101.163 15.9033 101.148 16.05H91.5339V14.048H99.3439L98.0239 14.642C98.0239 14.026 97.8993 13.4907 97.6499 13.036C97.4006 12.5813 97.0559 12.2293 96.6159 11.98C96.1759 11.716 95.6626 11.584 95.0759 11.584C94.4893 11.584 93.9686 11.716 93.5139 11.98C93.0739 12.2293 92.7293 12.5887 92.4799 13.058C92.2306 13.5127 92.1059 14.0553 92.1059 14.686V15.214C92.1059 15.8593 92.2453 16.4313 92.5239 16.93C92.8173 17.414 93.2206 17.788 93.7339 18.052C94.2619 18.3013 94.8779 18.426 95.5819 18.426C96.2126 18.426 96.7626 18.3307 97.2319 18.14C97.7159 17.9493 98.1559 17.6633 98.5519 17.282L100.378 19.262C99.8353 19.878 99.1533 20.3547 98.3319 20.692C97.5106 21.0147 96.5646 21.176 95.4939 21.176ZM110.819 21.176C109.821 21.176 108.949 20.956 108.201 20.516C107.453 20.076 106.866 19.4087 106.441 18.514C106.03 17.6047 105.825 16.4607 105.825 15.082C105.825 13.6887 106.023 12.5447 106.419 11.65C106.815 10.7553 107.387 10.088 108.135 9.648C108.883 9.208 109.777 8.988 110.819 8.988C111.933 8.988 112.931 9.24467 113.811 9.758C114.705 10.2567 115.409 10.9607 115.923 11.87C116.451 12.7793 116.715 13.85 116.715 15.082C116.715 16.3287 116.451 17.4067 115.923 18.316C115.409 19.2253 114.705 19.9293 113.811 20.428C112.931 20.9267 111.933 21.176 110.819 21.176ZM103.823 25.268V9.164H107.101V11.584L107.035 15.104L107.255 18.602V25.268H103.823ZM110.225 18.36C110.797 18.36 111.303 18.228 111.743 17.964C112.197 17.7 112.557 17.326 112.821 16.842C113.099 16.3433 113.239 15.7567 113.239 15.082C113.239 14.3927 113.099 13.806 112.821 13.322C112.557 12.838 112.197 12.464 111.743 12.2C111.303 11.936 110.797 11.804 110.225 11.804C109.653 11.804 109.139 11.936 108.685 12.2C108.23 12.464 107.871 12.838 107.607 13.322C107.343 13.806 107.211 14.3927 107.211 15.082C107.211 15.7567 107.343 16.3433 107.607 16.842C107.871 17.326 108.23 17.7 108.685 17.964C109.139 18.228 109.653 18.36 110.225 18.36Z" fill="#555555"/>
</svg>
