<svg width="15" height="15" viewBox="0 0 15 15" fill="none" xmlns="http://www.w3.org/2000/svg">
<path d="M7.15834 0.92238C7.15834 1.08772 7.03134 1.22296 6.85674 1.23807C3.36487 1.37332 0.634857 4.07881 0.634857 7.38549C0.634857 9.30937 1.57129 11.098 3.17446 12.2704V9.94062C3.17446 9.77528 3.31728 9.64004 3.49187 9.64004C3.66647 9.64004 3.80929 9.77529 3.80929 9.94062V12.9467C3.80929 13.112 3.66646 13.2473 3.49187 13.2473H0.317443C0.142844 13.2473 2.83275e-05 13.112 2.83275e-05 12.9467C2.83275e-05 12.7814 0.142852 12.6461 0.317443 12.6461H2.65065C0.984045 11.3685 0 9.42962 0 7.38549C0 3.74814 2.99983 0.78716 6.82502 0.621826C6.99962 0.621826 7.14244 0.757075 7.15828 0.922407L7.15834 0.92238ZM11.6343 2.12484H13.9675C14.1421 2.12484 14.2849 1.98959 14.2849 1.82426C14.2849 1.65892 14.1421 1.52367 13.9675 1.52367H10.7931C10.6185 1.52367 10.4756 1.65892 10.4756 1.82426V4.83033C10.4756 4.99567 10.6185 5.13091 10.7931 5.13091C10.9677 5.13091 11.1105 4.99566 11.1105 4.83033V2.50059C12.7135 3.67296 13.6501 5.46158 13.6501 7.38546C13.6501 10.6771 10.9359 13.3826 7.45993 13.5479C7.28534 13.5629 7.14252 13.6983 7.15834 13.8636C7.17417 14.0289 7.30116 14.1492 7.47575 14.1492H7.49158C11.3009 13.9688 14.2849 11.0079 14.2849 7.38554C14.2849 5.34141 13.3008 3.4025 11.6342 2.12492L11.6343 2.12484Z" fill="white"/>
</svg>
