<svg width="19" height="18" viewBox="0 0 19 18" fill="none" xmlns="http://www.w3.org/2000/svg">
<path d="M11.7796 12.7855C10.5602 13.606 9.06878 14.0892 7.45709 14.0892C3.33902 14.0892 0 10.9348 0 7.04458C0 3.15431 3.33902 0 7.45709 0C11.5752 0 14.9142 3.15431 14.9142 7.04458C14.9142 8.98978 14.0799 10.751 12.7297 12.0257L17.9911 16.996C18.2323 17.2239 18.2263 17.5895 17.984 17.8181C17.7402 18.0484 17.3523 18.0501 17.1138 17.8248L11.7788 12.7849L11.7796 12.7855ZM7.45709 13.2604C11.0908 13.2604 14.0369 10.4773 14.0369 7.04458C14.0369 3.61185 11.0908 0.828774 7.45709 0.828774C3.82335 0.828774 0.877305 3.61185 0.877305 7.04458C0.877305 10.4773 3.82335 13.2604 7.45709 13.2604Z" fill="#1B1A1A"/>
</svg>
